<mxfile host="65bd71144e">
    <diagram id="BQbfhOcx8H9JgvVOXXp6" name="Page-1">
        <mxGraphModel dx="1113" dy="700" grid="1" gridSize="10" guides="1" tooltips="1" connect="1" arrows="1" fold="1" page="1" pageScale="1" pageWidth="1654" pageHeight="2336" math="0" shadow="1">
            <root>
                <mxCell id="0"/>
                <mxCell id="1" parent="0"/>
                <mxCell id="node1" value="&lt;font style='font-size: 14.0px;' face='Times New Roman,serif' color='#000000'&gt;system&lt;/font&gt;" style="ellipse;verticalAlign=middle;html=1;rounded=0;labelBackgroundColor=none;strokeColor=black;fillColor=none;strokeWidth=1;dashed=0;" parent="1" vertex="1">
                    <mxGeometry x="434.59000000000003" width="72" height="36" as="geometry"/>
                </mxCell>
                <mxCell id="node2" value="&lt;font style='font-size: 14.0px;' face='Times New Roman,serif' color='#000000'&gt;recommend_ai&lt;/font&gt;" style="ellipse;verticalAlign=middle;html=1;rounded=0;labelBackgroundColor=none;strokeColor=black;fillColor=none;strokeWidth=1;dashed=0;" parent="1" vertex="1">
                    <mxGeometry x="406.70000000000005" y="72" width="127.78" height="36" as="geometry"/>
                </mxCell>
                <mxCell id="node3" value="&lt;font style='font-size: 14.0px;' face='Times New Roman,serif' color='#000000'&gt;svd&lt;/font&gt;" style="ellipse;verticalAlign=middle;html=1;rounded=0;labelBackgroundColor=none;strokeColor=black;fillColor=none;strokeWidth=1;dashed=0;" parent="1" vertex="1">
                    <mxGeometry x="443.59000000000003" y="144" width="54" height="36" as="geometry"/>
                </mxCell>
                <mxCell id="node4" value="&lt;font style='font-size: 14.0px;' face='Times New Roman,serif' color='#000000'&gt;model_a&lt;/font&gt;" style="ellipse;verticalAlign=middle;html=1;rounded=0;labelBackgroundColor=none;strokeColor=black;fillColor=none;strokeWidth=1;dashed=0;" parent="1" vertex="1">
                    <mxGeometry x="428.9" y="216" width="83.38" height="36" as="geometry"/>
                </mxCell>
                <mxCell id="node5" value="&lt;font style='font-size: 14.0px;' face='Times New Roman,serif' color='#000000'&gt;description&lt;/font&gt;" style="ellipse;verticalAlign=middle;html=1;rounded=0;labelBackgroundColor=none;strokeColor=black;fillColor=none;strokeWidth=1;dashed=0;" parent="1" vertex="1">
                    <mxGeometry x="76.5" y="288" width="100.18" height="36" as="geometry"/>
                </mxCell>
                <mxCell id="node6" value="&lt;font style='font-size: 14.0px;' face='Times New Roman,serif' color='#000000'&gt;training_time&lt;/font&gt;" style="ellipse;verticalAlign=middle;html=1;rounded=0;labelBackgroundColor=none;strokeColor=black;fillColor=none;strokeWidth=1;dashed=0;" parent="1" vertex="1">
                    <mxGeometry x="195.09000000000003" y="288" width="117" height="36" as="geometry"/>
                </mxCell>
                <mxCell id="node7" value="&lt;font style='font-size: 14.0px;' face='Times New Roman,serif' color='#000000'&gt;model_path&lt;/font&gt;" style="ellipse;verticalAlign=middle;html=1;rounded=0;labelBackgroundColor=none;strokeColor=black;fillColor=none;strokeWidth=1;dashed=0;" parent="1" vertex="1">
                    <mxGeometry x="336.79999999999995" y="288" width="105.58" height="36" as="geometry"/>
                </mxCell>
                <mxCell id="node8" value="&lt;font style='font-size: 14.0px;' face='Times New Roman,serif' color='#000000'&gt;learning_tables&lt;/font&gt;" style="ellipse;verticalAlign=middle;html=1;rounded=0;labelBackgroundColor=none;strokeColor=black;fillColor=none;strokeWidth=1;dashed=0;" parent="1" vertex="1">
                    <mxGeometry x="825.0899999999999" y="360" width="129" height="36" as="geometry"/>
                </mxCell>
                <mxCell id="node9" value="&lt;font style='font-size: 14.0px;' face='Times New Roman,serif' color='#000000'&gt;replace_columns_tables&lt;/font&gt;" style="ellipse;verticalAlign=middle;html=1;rounded=0;labelBackgroundColor=none;strokeColor=black;fillColor=none;strokeWidth=1;dashed=0;" parent="1" vertex="1">
                    <mxGeometry x="344.01" y="360" width="191.16" height="36" as="geometry"/>
                </mxCell>
                <mxCell id="node10" value="&lt;font style='font-size: 14.0px;' face='Times New Roman,serif' color='#000000'&gt;rules_merge_data&lt;/font&gt;" style="ellipse;verticalAlign=middle;html=1;rounded=0;labelBackgroundColor=none;strokeColor=black;fillColor=none;strokeWidth=1;dashed=0;" parent="1" vertex="1">
                    <mxGeometry x="530.0899999999999" y="288" width="147" height="36" as="geometry"/>
                </mxCell>
                <mxCell id="node11" value="&lt;font style='font-size: 14.0px;' face='Times New Roman,serif' color='#000000'&gt;matrix&lt;/font&gt;" style="ellipse;verticalAlign=middle;html=1;rounded=0;labelBackgroundColor=none;strokeColor=black;fillColor=none;strokeWidth=1;dashed=0;" parent="1" vertex="1">
                    <mxGeometry x="997.0899999999999" y="288" width="69" height="36" as="geometry"/>
                </mxCell>
                <mxCell id="node12" value="&lt;font style='font-size: 14.0px;' face='Times New Roman,serif' color='#000000'&gt;days&lt;/font&gt;" style="ellipse;verticalAlign=middle;html=1;rounded=0;labelBackgroundColor=none;strokeColor=black;fillColor=none;strokeWidth=1;dashed=0;" parent="1" vertex="1">
                    <mxGeometry x="271.59000000000003" y="360" width="54" height="36" as="geometry"/>
                </mxCell>
                <mxCell id="node13" value="&lt;font style='font-size: 14.0px;' face='Times New Roman,serif' color='#000000'&gt;hours&lt;/font&gt;" style="ellipse;verticalAlign=middle;html=1;rounded=0;labelBackgroundColor=none;strokeColor=black;fillColor=none;strokeWidth=1;dashed=0;" parent="1" vertex="1">
                    <mxGeometry y="360" width="61.18" height="36" as="geometry"/>
                </mxCell>
                <mxCell id="node14" value="&lt;font style='font-size: 14.0px;' face='Times New Roman,serif' color='#000000'&gt;minutes&lt;/font&gt;" style="ellipse;verticalAlign=middle;html=1;rounded=0;labelBackgroundColor=none;strokeColor=black;fillColor=none;strokeWidth=1;dashed=0;" parent="1" vertex="1">
                    <mxGeometry x="79.58999999999997" y="360" width="78" height="36" as="geometry"/>
                </mxCell>
                <mxCell id="node15" value="&lt;font style='font-size: 14.0px;' face='Times New Roman,serif' color='#000000'&gt;seconds&lt;/font&gt;" style="ellipse;verticalAlign=middle;html=1;rounded=0;labelBackgroundColor=none;strokeColor=black;fillColor=none;strokeWidth=1;dashed=0;" parent="1" vertex="1">
                    <mxGeometry x="176.09000000000003" y="360" width="77" height="36" as="geometry"/>
                </mxCell>
                <mxCell id="node16" value="&lt;font style='font-size: 14.0px;' face='Times New Roman,serif' color='#000000'&gt;user&lt;/font&gt;" style="ellipse;verticalAlign=middle;html=1;rounded=0;labelBackgroundColor=none;strokeColor=black;fillColor=none;strokeWidth=1;dashed=0;" parent="1" vertex="1">
                    <mxGeometry x="782.5899999999999" y="432" width="54" height="36" as="geometry"/>
                </mxCell>
                <mxCell id="node17" value="&lt;font style='font-size: 14.0px;' face='Times New Roman,serif' color='#000000'&gt;product&lt;/font&gt;" style="ellipse;verticalAlign=middle;html=1;rounded=0;labelBackgroundColor=none;strokeColor=black;fillColor=none;strokeWidth=1;dashed=0;" parent="1" vertex="1">
                    <mxGeometry x="683.6999999999999" y="432" width="75.78" height="36" as="geometry"/>
                </mxCell>
                <mxCell id="node18" value="&lt;font style='font-size: 14.0px;' face='Times New Roman,serif' color='#000000'&gt;interactions&lt;/font&gt;" style="ellipse;verticalAlign=middle;html=1;rounded=0;labelBackgroundColor=none;strokeColor=black;fillColor=none;strokeWidth=1;dashed=0;" parent="1" vertex="1">
                    <mxGeometry x="854.5899999999999" y="432" width="104" height="36" as="geometry"/>
                </mxCell>
                <mxCell id="node19" value="&lt;font style='font-size: 14.0px;' face='Times New Roman,serif' color='#000000'&gt;start_target&lt;/font&gt;" style="ellipse;verticalAlign=middle;html=1;rounded=0;labelBackgroundColor=none;strokeColor=black;fillColor=none;strokeWidth=1;dashed=0;" parent="1" vertex="1">
                    <mxGeometry x="553.4999999999999" y="360" width="100.18" height="36" as="geometry"/>
                </mxCell>
                <mxCell id="node20" value="&lt;font style='font-size: 14.0px;' face='Times New Roman,serif' color='#000000'&gt;merge_columns&lt;/font&gt;" style="ellipse;verticalAlign=middle;html=1;rounded=0;labelBackgroundColor=none;strokeColor=black;fillColor=none;strokeWidth=1;dashed=0;" parent="1" vertex="1">
                    <mxGeometry x="671.8999999999999" y="360" width="135.38" height="36" as="geometry"/>
                </mxCell>
                <mxCell id="node21" value="&lt;font style='font-size: 14.0px;' face='Times New Roman,serif' color='#000000'&gt;columns&lt;/font&gt;" style="ellipse;verticalAlign=middle;html=1;rounded=0;labelBackgroundColor=none;strokeColor=black;fillColor=none;strokeWidth=1;dashed=0;" parent="1" vertex="1">
                    <mxGeometry x="876.5899999999999" y="504" width="82" height="36" as="geometry"/>
                </mxCell>
                <mxCell id="node22" value="&lt;font style='font-size: 14.0px;' face='Times New Roman,serif' color='#000000'&gt;index&lt;/font&gt;" style="ellipse;verticalAlign=middle;html=1;rounded=0;labelBackgroundColor=none;strokeColor=black;fillColor=none;strokeWidth=1;dashed=0;" parent="1" vertex="1">
                    <mxGeometry x="954.0899999999999" y="330" width="61.18" height="36" as="geometry"/>
                </mxCell>
                <mxCell id="node23" value="&lt;font style='font-size: 14.0px;' face='Times New Roman,serif' color='#000000'&gt;values&lt;/font&gt;" style="ellipse;verticalAlign=middle;html=1;rounded=0;labelBackgroundColor=none;strokeColor=black;fillColor=none;strokeWidth=1;dashed=0;" parent="1" vertex="1">
                    <mxGeometry x="1084.51" y="330" width="66.58" height="36" as="geometry"/>
                </mxCell>
                <mxCell id="node24" value="&lt;font style='font-size: 14.0px;' face='Times New Roman,serif' color='#000000'&gt;userId&lt;/font&gt;" style="ellipse;verticalAlign=middle;html=1;rounded=0;labelBackgroundColor=none;strokeColor=black;fillColor=none;strokeWidth=1;dashed=0;" parent="1" vertex="1">
                    <mxGeometry x="779.0899999999999" y="504" width="65" height="36" as="geometry"/>
                </mxCell>
                <mxCell id="node25" value="&lt;font style='font-size: 14.0px;' face='Times New Roman,serif' color='#000000'&gt;productId&lt;/font&gt;" style="ellipse;verticalAlign=middle;html=1;rounded=0;labelBackgroundColor=none;strokeColor=black;fillColor=none;strokeWidth=1;dashed=0;" parent="1" vertex="1">
                    <mxGeometry x="670.5899999999999" y="504" width="90" height="36" as="geometry"/>
                </mxCell>
                <mxCell id="node26" value="&lt;font style='font-size: 14.0px;' face='Times New Roman,serif' color='#000000'&gt;productId&lt;/font&gt;" style="ellipse;verticalAlign=middle;html=1;rounded=0;labelBackgroundColor=none;strokeColor=black;fillColor=none;strokeWidth=1;dashed=0;" parent="1" vertex="1">
                    <mxGeometry x="681.5899999999999" y="576" width="90" height="36" as="geometry"/>
                </mxCell>
                <mxCell id="node27" value="&lt;font style='font-size: 14.0px;' face='Times New Roman,serif' color='#000000'&gt;action&lt;/font&gt;" style="ellipse;verticalAlign=middle;html=1;rounded=0;labelBackgroundColor=none;strokeColor=black;fillColor=none;strokeWidth=1;dashed=0;" parent="1" vertex="1">
                    <mxGeometry x="790.0899999999999" y="576" width="65" height="36" as="geometry"/>
                </mxCell>
                <mxCell id="node28" value="&lt;font style='font-size: 14.0px;' face='Times New Roman,serif' color='#000000'&gt;userId&lt;/font&gt;" style="ellipse;verticalAlign=middle;html=1;rounded=0;labelBackgroundColor=none;strokeColor=black;fillColor=none;strokeWidth=1;dashed=0;" parent="1" vertex="1">
                    <mxGeometry x="873.0899999999999" y="576" width="65" height="36" as="geometry"/>
                </mxCell>
                <mxCell id="node29" value="&lt;font style='font-size: 14.0px;' face='Times New Roman,serif' color='#000000'&gt;clicks&lt;/font&gt;" style="ellipse;verticalAlign=middle;html=1;rounded=0;labelBackgroundColor=none;strokeColor=black;fillColor=none;strokeWidth=1;dashed=0;" parent="1" vertex="1">
                    <mxGeometry x="956.19" y="576" width="62.8" height="36" as="geometry"/>
                </mxCell>
                <mxCell id="node30" value="&lt;font style='font-size: 14.0px;' face='Times New Roman,serif' color='#000000'&gt;categoryId&lt;/font&gt;" style="ellipse;verticalAlign=middle;html=1;rounded=0;labelBackgroundColor=none;strokeColor=black;fillColor=none;strokeWidth=1;dashed=0;" parent="1" vertex="1">
                    <mxGeometry x="1036.3999999999999" y="576" width="96.38" height="36" as="geometry"/>
                </mxCell>
                <mxCell id="node31" value="&lt;font style='font-size: 14.0px;' face='Times New Roman,serif' color='#000000'&gt;birthday&lt;/font&gt;" style="ellipse;verticalAlign=middle;html=1;rounded=0;labelBackgroundColor=none;strokeColor=black;fillColor=none;strokeWidth=1;dashed=0;" parent="1" vertex="1">
                    <mxGeometry x="1151.09" y="576" width="81" height="36" as="geometry"/>
                </mxCell>
                <mxCell id="edge1" style="html=1;endArrow=block;dashed=0;endFill=1;startArrow=none;startFill=0;fillColor=black;strokeColor=black;strokeWidth=1;rounded=0;exitX=0.5000;exitY=1.0000;entryX=0.5000;entryY=0.0000;" parent="1" source="node1" target="node2" edge="1">
                    <mxGeometry relative="1" as="geometry">
                        <mxPoint x="470.59000000000003" y="36.299999999999955" as="sourcePoint"/>
                        <mxPoint x="470.59000000000003" y="61.889999999999986" as="targetPoint"/>
                    </mxGeometry>
                </mxCell>
                <mxCell id="edge2" style="html=1;endArrow=block;dashed=0;endFill=1;startArrow=none;startFill=0;fillColor=black;strokeColor=black;strokeWidth=1;rounded=0;exitX=0.5000;exitY=1.0000;entryX=0.5000;entryY=0.0000;" parent="1" source="node2" target="node3" edge="1">
                    <mxGeometry relative="1" as="geometry">
                        <mxPoint x="470.59000000000003" y="108.30000000000001" as="sourcePoint"/>
                        <mxPoint x="470.59000000000003" y="133.89" as="targetPoint"/>
                    </mxGeometry>
                </mxCell>
                <mxCell id="edge3" style="html=1;endArrow=block;dashed=0;endFill=1;startArrow=none;startFill=0;fillColor=black;strokeColor=black;strokeWidth=1;rounded=0;exitX=0.5000;exitY=1.0000;entryX=0.5000;entryY=0.0000;" parent="1" source="node3" target="node4" edge="1">
                    <mxGeometry relative="1" as="geometry">
                        <mxPoint x="470.59000000000003" y="180.3" as="sourcePoint"/>
                        <mxPoint x="470.59000000000003" y="205.89" as="targetPoint"/>
                    </mxGeometry>
                </mxCell>
                <mxCell id="edge4" style="html=1;endArrow=block;dashed=0;endFill=1;startArrow=none;startFill=0;fillColor=black;strokeColor=black;strokeWidth=1;curved=1;exitX=0.0000;exitY=0.6931;entryX=0.9657;entryY=0.0000;" parent="1" source="node4" target="node5" edge="1">
                    <mxGeometry relative="1" as="geometry">
                        <mxPoint x="432.08000000000004" y="240.95" as="sourcePoint"/>
                        <mxPoint x="173.24" y="291.11" as="targetPoint"/>
                        <Array as="points">
                            <mxPoint x="286.20083989101283" y="264.2110951664695"/>
                            <mxPoint x="185.59000000000003" y="288"/>
                        </Array>
                    </mxGeometry>
                </mxCell>
                <mxCell id="edge5" style="html=1;endArrow=block;dashed=0;endFill=1;startArrow=none;startFill=0;fillColor=black;strokeColor=black;strokeWidth=1;rounded=0;exitX=0.1103;exitY=1.0000;entryX=0.9152;entryY=0.0000;" parent="1" source="node4" target="node6" edge="1">
                    <mxGeometry relative="1" as="geometry">
                        <mxPoint x="438.1" y="245.48000000000002" as="sourcePoint"/>
                        <mxPoint x="302.16999999999996" y="289.33" as="targetPoint"/>
                    </mxGeometry>
                </mxCell>
                <mxCell id="edge6" style="html=1;endArrow=block;dashed=0;endFill=1;startArrow=none;startFill=0;fillColor=black;strokeColor=black;strokeWidth=1;rounded=0;exitX=0.2844;exitY=1.0000;entryX=0.7470;entryY=0.0000;" parent="1" source="node4" target="node7" edge="1">
                    <mxGeometry relative="1" as="geometry">
                        <mxPoint x="452.61" y="250.54000000000002" as="sourcePoint"/>
                        <mxPoint x="415.66999999999996" y="282.46" as="targetPoint"/>
                    </mxGeometry>
                </mxCell>
                <mxCell id="edge7" style="html=1;endArrow=block;dashed=0;endFill=1;startArrow=none;startFill=0;fillColor=black;strokeColor=black;strokeWidth=1;curved=1;exitX=1.0000;exitY=0.7283;entryX=0.1948;entryY=0.0000;" parent="1" source="node4" target="node8" edge="1">
                    <mxGeometry relative="1" as="geometry">
                        <mxPoint x="508.03999999999996" y="242.22000000000003" as="sourcePoint"/>
                        <mxPoint x="850.22" y="357.43" as="targetPoint"/>
                        <Array as="points">
                            <mxPoint x="614.072758015261" y="263.7739593473568"/>
                            <mxPoint x="755.3169017410744" y="311.61794170916625"/>
                        </Array>
                    </mxGeometry>
                </mxCell>
                <mxCell id="edge8" style="html=1;endArrow=block;dashed=0;endFill=1;startArrow=none;startFill=0;fillColor=black;strokeColor=black;strokeWidth=1;rounded=0;exitX=0.4571;exitY=1.0000;entryX=0.5324;entryY=0.0000;" parent="1" source="node4" target="node9" edge="1">
                    <mxGeometry relative="1" as="geometry">
                        <mxPoint x="467.01" y="252.07999999999998" as="sourcePoint"/>
                        <mxPoint x="445.78999999999996" y="349.89" as="targetPoint"/>
                        <Array as="points">
                            <mxPoint x="451.59000000000003" y="324"/>
                        </Array>
                    </mxGeometry>
                </mxCell>
                <mxCell id="edge9" style="html=1;endArrow=block;dashed=0;endFill=1;startArrow=none;startFill=0;fillColor=black;strokeColor=black;strokeWidth=1;rounded=0;exitX=0.8038;exitY=1.0000;entryX=0.2364;entryY=0.0000;" parent="1" source="node4" target="node10" edge="1">
                    <mxGeometry relative="1" as="geometry">
                        <mxPoint x="495.91999999999996" y="248.32999999999998" as="sourcePoint"/>
                        <mxPoint x="564.8399999999999" y="284.61" as="targetPoint"/>
                    </mxGeometry>
                </mxCell>
                <mxCell id="edge10" style="html=1;endArrow=block;dashed=0;endFill=1;startArrow=none;startFill=0;fillColor=black;strokeColor=black;strokeWidth=1;rounded=0;exitX=1.0000;exitY=0.6644;entryX=0.0000;entryY=0.3222;" parent="1" source="node4" target="node11" edge="1">
                    <mxGeometry relative="1" as="geometry">
                        <mxPoint x="510.03999999999996" y="239.92000000000002" as="sourcePoint"/>
                        <mxPoint x="988.3" y="299.6" as="targetPoint"/>
                    </mxGeometry>
                </mxCell>
                <mxCell id="edge11" style="html=1;endArrow=block;dashed=0;endFill=1;startArrow=none;startFill=0;fillColor=black;strokeColor=black;strokeWidth=1;rounded=0;exitX=0.5931;exitY=1.0000;entryX=0.2091;entryY=0.0000;" parent="1" source="node6" target="node12" edge="1">
                    <mxGeometry relative="1" as="geometry">
                        <mxPoint x="264.48" y="323.95" as="sourcePoint"/>
                        <mxPoint x="282.88" y="352.56" as="targetPoint"/>
                    </mxGeometry>
                </mxCell>
                <mxCell id="edge12" style="html=1;endArrow=block;dashed=0;endFill=1;startArrow=none;startFill=0;fillColor=black;strokeColor=black;strokeWidth=1;rounded=0;exitX=0.1262;exitY=1.0000;entryX=1.0000;entryY=0.0750;" parent="1" source="node6" target="node13" edge="1">
                    <mxGeometry relative="1" as="geometry">
                        <mxPoint x="209.86" y="318.08" as="sourcePoint"/>
                        <mxPoint x="63.370000000000005" y="362.7" as="targetPoint"/>
                        <Array as="points">
                            <mxPoint x="70.58999999999997" y="360"/>
                        </Array>
                    </mxGeometry>
                </mxCell>
                <mxCell id="edge13" style="html=1;endArrow=block;dashed=0;endFill=1;startArrow=none;startFill=0;fillColor=black;strokeColor=black;strokeWidth=1;rounded=0;exitX=0.2553;exitY=1.0000;entryX=0.9369;entryY=0.0000;" parent="1" source="node6" target="node14" edge="1">
                    <mxGeometry relative="1" as="geometry">
                        <mxPoint x="224.95999999999998" y="321.85" as="sourcePoint"/>
                        <mxPoint x="152.66999999999996" y="359.33000000000004" as="targetPoint"/>
                    </mxGeometry>
                </mxCell>
                <mxCell id="edge14" style="html=1;endArrow=block;dashed=0;endFill=1;startArrow=none;startFill=0;fillColor=black;strokeColor=black;strokeWidth=1;rounded=0;exitX=0.4193;exitY=1.0000;entryX=0.6848;entryY=0.0000;" parent="1" source="node6" target="node15" edge="1">
                    <mxGeometry relative="1" as="geometry">
                        <mxPoint x="244.14999999999998" y="323.95" as="sourcePoint"/>
                        <mxPoint x="228.82" y="351.46" as="targetPoint"/>
                    </mxGeometry>
                </mxCell>
                <mxCell id="edge15" style="html=1;endArrow=block;dashed=0;endFill=1;startArrow=none;startFill=0;fillColor=black;strokeColor=black;strokeWidth=1;rounded=0;exitX=0.3530;exitY=1.0000;entryX=0.9383;entryY=0.0000;" parent="1" source="node8" target="node16" edge="1">
                    <mxGeometry relative="1" as="geometry">
                        <mxPoint x="870.6300000000001" y="395.59000000000003" as="sourcePoint"/>
                        <mxPoint x="833.26" y="428.28" as="targetPoint"/>
                    </mxGeometry>
                </mxCell>
                <mxCell id="edge16" style="html=1;endArrow=block;dashed=0;endFill=1;startArrow=none;startFill=0;fillColor=black;strokeColor=black;strokeWidth=1;rounded=0;exitX=0.2333;exitY=1.0000;entryX=1.0000;entryY=0.0469;" parent="1" source="node8" target="node17" edge="1">
                    <mxGeometry relative="1" as="geometry">
                        <mxPoint x="855.1800000000001" y="393.33000000000004" as="sourcePoint"/>
                        <mxPoint x="758.3299999999999" y="433.69" as="targetPoint"/>
                    </mxGeometry>
                </mxCell>
                <mxCell id="edge17" style="html=1;endArrow=block;dashed=0;endFill=1;startArrow=none;startFill=0;fillColor=black;strokeColor=black;strokeWidth=1;rounded=0;exitX=0.5326;exitY=1.0000;entryX=0.4373;entryY=0.0000;" parent="1" source="node8" target="node18" edge="1">
                    <mxGeometry relative="1" as="geometry">
                        <mxPoint x="893.79" y="396.3" as="sourcePoint"/>
                        <mxPoint x="900.0699999999999" y="422.16999999999996" as="targetPoint"/>
                    </mxGeometry>
                </mxCell>
                <mxCell id="edge18" style="html=1;endArrow=block;dashed=0;endFill=1;startArrow=none;startFill=0;fillColor=black;strokeColor=black;strokeWidth=1;curved=1;exitX=0.8649;exitY=1.0000;entryX=0.0000;entryY=0.0875;" parent="1" source="node9" target="node16" edge="1">
                    <mxGeometry relative="1" as="geometry">
                        <mxPoint x="509.3399999999999" y="390.3" as="sourcePoint"/>
                        <mxPoint x="778.29" y="435.15" as="targetPoint"/>
                        <Array as="points">
                            <mxPoint x="581.2487153130509" y="401.9145968246694"/>
                            <mxPoint x="707.306963758479" y="414.6277342888174"/>
                            <mxPoint x="768.5899999999999" y="432"/>
                        </Array>
                    </mxGeometry>
                </mxCell>
                <mxCell id="edge19" style="html=1;endArrow=block;dashed=0;endFill=1;startArrow=none;startFill=0;fillColor=black;strokeColor=black;strokeWidth=1;rounded=0;exitX=0.7897;exitY=1.0000;entryX=0.0000;entryY=0.1772;" parent="1" source="node9" target="node17" edge="1">
                    <mxGeometry relative="1" as="geometry">
                        <mxPoint x="494.96000000000004" y="392.75" as="sourcePoint"/>
                        <mxPoint x="678.81" y="438.38" as="targetPoint"/>
                    </mxGeometry>
                </mxCell>
                <mxCell id="edge20" style="html=1;endArrow=block;dashed=0;endFill=1;startArrow=none;startFill=0;fillColor=black;strokeColor=black;strokeWidth=1;rounded=0;exitX=0.5000;exitY=1.0000;entryX=0.5000;entryY=0.0000;" parent="1" source="node10" target="node19" edge="1">
                    <mxGeometry relative="1" as="geometry">
                        <mxPoint x="603.5899999999999" y="324.3" as="sourcePoint"/>
                        <mxPoint x="603.5899999999999" y="349.89" as="targetPoint"/>
                    </mxGeometry>
                </mxCell>
                <mxCell id="edge21" style="html=1;endArrow=block;dashed=0;endFill=1;startArrow=none;startFill=0;fillColor=black;strokeColor=black;strokeWidth=1;rounded=0;exitX=0.7053;exitY=1.0000;entryX=0.2138;entryY=0.0000;" parent="1" source="node10" target="node20" edge="1">
                    <mxGeometry relative="1" as="geometry">
                        <mxPoint x="633.77" y="322.54" as="sourcePoint"/>
                        <mxPoint x="700.8499999999999" y="357.06" as="targetPoint"/>
                    </mxGeometry>
                </mxCell>
                <mxCell id="edge22" style="html=1;endArrow=block;dashed=0;endFill=1;startArrow=none;startFill=0;fillColor=black;strokeColor=black;strokeWidth=1;curved=1;exitX=0.6014;exitY=1.0000;entryX=0.9059;entryY=0.0000;" parent="1" source="node11" target="node21" edge="1">
                    <mxGeometry relative="1" as="geometry">
                        <mxPoint x="1038.59" y="323.78" as="sourcePoint"/>
                        <mxPoint x="938.8700000000001" y="502.40999999999997" as="targetPoint"/>
                        <Array as="points">
                            <mxPoint x="1018.336215861463" y="452.9153891071568"/>
                        </Array>
                    </mxGeometry>
                </mxCell>
                <mxCell id="edge23" style="html=1;endArrow=block;dashed=0;endFill=1;startArrow=none;startFill=0;fillColor=black;strokeColor=black;strokeWidth=1;rounded=0;exitX=0.3983;exitY=1.0000;entryX=0.6767;entryY=0.0000;" parent="1" source="node11" target="node22" edge="1">
                    <mxGeometry relative="1" as="geometry">
                        <mxPoint x="1024.57" y="323.95" as="sourcePoint"/>
                        <mxPoint x="1013.4000000000001" y="350.89" as="targetPoint"/>
                    </mxGeometry>
                </mxCell>
                <mxCell id="edge24" style="html=1;endArrow=block;dashed=0;endFill=1;startArrow=none;startFill=0;fillColor=black;strokeColor=black;strokeWidth=1;rounded=0;exitX=0.7732;exitY=1.0000;entryX=0.0991;entryY=0.0000;" parent="1" source="node11" target="node23" edge="1">
                    <mxGeometry relative="1" as="geometry">
                        <mxPoint x="1050.44" y="321.5" as="sourcePoint"/>
                        <mxPoint x="1095.8999999999999" y="356.47" as="targetPoint"/>
                    </mxGeometry>
                </mxCell>
                <mxCell id="edge25" style="html=1;endArrow=block;dashed=0;endFill=1;startArrow=none;startFill=0;fillColor=black;strokeColor=black;strokeWidth=1;rounded=0;exitX=0.8261;exitY=1.0000;entryX=0.1554;entryY=0.0000;" parent="1" source="node16" target="node21" edge="1">
                    <mxGeometry relative="1" as="geometry">
                        <mxPoint x="827.1999999999999" y="463.84000000000003" as="sourcePoint"/>
                        <mxPoint x="877.3299999999999" y="500.39" as="targetPoint"/>
                    </mxGeometry>
                </mxCell>
                <mxCell id="edge27" style="html=1;endArrow=block;dashed=0;endFill=1;startArrow=none;startFill=0;fillColor=black;strokeColor=black;strokeWidth=1;curved=1;exitX=0.6169;exitY=1.0000;entryX=0.5895;entryY=0.0000;" parent="1" source="node16" target="node24" edge="1">
                    <mxGeometry relative="1" as="geometry">
                        <mxPoint x="815.9" y="467.59000000000003" as="sourcePoint"/>
                        <mxPoint x="817.41" y="493.77" as="targetPoint"/>
                    </mxGeometry>
                </mxCell>
                <mxCell id="edge28" style="html=1;endArrow=block;dashed=0;endFill=1;startArrow=none;startFill=0;fillColor=black;strokeColor=black;strokeWidth=1;rounded=0;exitX=0.8794;exitY=1.0000;entryX=0.0000;entryY=0.0553;" parent="1" source="node17" target="node21" edge="1">
                    <mxGeometry relative="1" as="geometry">
                        <mxPoint x="750.3399999999999" y="461.94000000000005" as="sourcePoint"/>
                        <mxPoint x="866.1300000000001" y="505.99" as="targetPoint"/>
                    </mxGeometry>
                </mxCell>
                <mxCell id="edge29" style="html=1;endArrow=block;dashed=0;endFill=1;startArrow=none;startFill=0;fillColor=black;strokeColor=black;strokeWidth=1;curved=1;exitX=0.4033;exitY=1.0000;entryX=0.4527;entryY=0.0000;" parent="1" source="node17" target="node25" edge="1">
                    <mxGeometry relative="1" as="geometry">
                        <mxPoint x="714.26" y="467.95000000000005" as="sourcePoint"/>
                        <mxPoint x="711.3299999999999" y="493.64" as="targetPoint"/>
                    </mxGeometry>
                </mxCell>
                <mxCell id="edge31" style="html=1;endArrow=block;dashed=0;endFill=1;startArrow=none;startFill=0;fillColor=black;strokeColor=black;strokeWidth=1;rounded=0;exitX=0.4976;exitY=1.0000;entryX=0.5046;entryY=0.0000;" parent="1" source="node18" target="node21" edge="1">
                    <mxGeometry relative="1" as="geometry">
                        <mxPoint x="906.3399999999999" y="468.29999999999995" as="sourcePoint"/>
                        <mxPoint x="905.97" y="493.89" as="targetPoint"/>
                    </mxGeometry>
                </mxCell>
                <mxCell id="edge47" style="html=1;endArrow=block;dashed=0;endFill=1;startArrow=none;startFill=0;fillColor=black;strokeColor=black;strokeWidth=1;rounded=0;exitX=0.6225;exitY=1.0000;entryX=0.0991;entryY=0.0000;" parent="1" source="node20" target="node16" edge="1">
                    <mxGeometry relative="1" as="geometry">
                        <mxPoint x="756.18" y="395.59000000000003" as="sourcePoint"/>
                        <mxPoint x="787.9399999999999" y="427.35" as="targetPoint"/>
                    </mxGeometry>
                </mxCell>
                <mxCell id="edge48" style="html=1;endArrow=block;dashed=0;endFill=1;startArrow=none;startFill=0;fillColor=black;strokeColor=black;strokeWidth=1;rounded=0;exitX=0.4671;exitY=1.0000;entryX=0.5911;entryY=0.0000;" parent="1" source="node20" target="node17" edge="1">
                    <mxGeometry relative="1" as="geometry">
                        <mxPoint x="735.14" y="396.3" as="sourcePoint"/>
                        <mxPoint x="728.49" y="422.16999999999996" as="targetPoint"/>
                    </mxGeometry>
                </mxCell>
                <mxCell id="edge32" style="html=1;endArrow=block;dashed=0;endFill=1;startArrow=none;startFill=0;fillColor=black;strokeColor=black;strokeWidth=1;curved=1;exitX=0.0000;exitY=0.7900;entryX=0.8831;entryY=0.0000;" parent="1" source="node21" target="node26" edge="1">
                    <mxGeometry relative="1" as="geometry">
                        <mxPoint x="871.8700000000001" y="532.44" as="sourcePoint"/>
                        <mxPoint x="761.0699999999999" y="574.82" as="targetPoint"/>
                    </mxGeometry>
                </mxCell>
                <mxCell id="edge37" style="html=1;endArrow=block;dashed=0;endFill=1;startArrow=none;startFill=0;fillColor=black;strokeColor=black;strokeWidth=1;curved=1;exitX=0.3983;exitY=1.0000;entryX=0.9962;entryY=0.0000;" parent="1" source="node21" target="node27" edge="1">
                    <mxGeometry relative="1" as="geometry">
                        <mxPoint x="897.25" y="539.95" as="sourcePoint"/>
                        <mxPoint x="854.8399999999999" y="575.76" as="targetPoint"/>
                    </mxGeometry>
                </mxCell>
                <mxCell id="edge40" style="html=1;endArrow=block;dashed=0;endFill=1;startArrow=none;startFill=0;fillColor=black;strokeColor=black;strokeWidth=1;curved=1;exitX=0.6424;exitY=1.0000;entryX=0.7017;entryY=0.0000;" parent="1" source="node21" target="node28" edge="1">
                    <mxGeometry relative="1" as="geometry">
                        <mxPoint x="917.27" y="539.59" as="sourcePoint"/>
                        <mxPoint x="918.7" y="566.85" as="targetPoint"/>
                    </mxGeometry>
                </mxCell>
                <mxCell id="edge43" style="html=1;endArrow=block;dashed=0;endFill=1;startArrow=none;startFill=0;fillColor=black;strokeColor=black;strokeWidth=1;curved=1;exitX=0.8200;exitY=1.0000;entryX=0.2596;entryY=0.0000;" parent="1" source="node21" target="node29" edge="1">
                    <mxGeometry relative="1" as="geometry">
                        <mxPoint x="931.8299999999999" y="536.17" as="sourcePoint"/>
                        <mxPoint x="972.49" y="569.13" as="targetPoint"/>
                    </mxGeometry>
                </mxCell>
                <mxCell id="edge44" style="html=1;endArrow=block;dashed=0;endFill=1;startArrow=none;startFill=0;fillColor=black;strokeColor=black;strokeWidth=1;curved=1;exitX=0.8301;exitY=1.0000;entryX=0.0404;entryY=0.0000;" parent="1" source="node21" target="node30" edge="1">
                    <mxGeometry relative="1" as="geometry">
                        <mxPoint x="932.6600000000001" y="535.6800000000001" as="sourcePoint"/>
                        <mxPoint x="1040.29" y="577.89" as="targetPoint"/>
                    </mxGeometry>
                </mxCell>
                <mxCell id="edge46" style="html=1;endArrow=block;dashed=0;endFill=1;startArrow=none;startFill=0;fillColor=black;strokeColor=black;strokeWidth=1;curved=1;exitX=1.0000;exitY=0.7236;entryX=0.0000;entryY=0.0806;" parent="1" source="node21" target="node31" edge="1">
                    <mxGeometry relative="1" as="geometry">
                        <mxPoint x="942.6800000000001" y="530.05" as="sourcePoint"/>
                        <mxPoint x="1151.31" y="578.9" as="targetPoint"/>
                        <Array as="points">
                            <mxPoint x="1060.6087641430004" y="553.2069209589893"/>
                            <mxPoint x="1141.59" y="576"/>
                        </Array>
                    </mxGeometry>
                </mxCell>
            </root>
        </mxGraphModel>
    </diagram>
</mxfile>